<?xml version="1.0" encoding="UTF-8"?>
<svg id="Layer_1" xmlns="http://www.w3.org/2000/svg" version="1.1" viewBox="0 0 108 108">
  <!-- Generator: Adobe Illustrator 29.8.4, SVG Export Plug-In . SVG Version: 2.1.1 Build 6)  -->
  <defs>
    <style>
      .st0 {
        fill: #c3d0c5;
        opacity: .5;
      }
    </style>
  </defs>
  <path class="st0" d="M70.81,15.73s-1.34,1.09-1.51,2.85c-.25,1.76-1.09,4.78-.08,7.3,1.68,4.19,4.11,7.3,4.11,7.3,0,0,2.43,3.94,4.03,5.28,1.51,1.34,4.87,5.28,4.87,9.73,0,2.43-.25,7.97-.92,9.73-.67,1.76.17,6.79-2.18,9.23-2.35,2.43-4.19,3.94-4.61,5.03s-4.45,3.52-5.54,5.03c-1.09,1.51-5.96,7.05-5.96,7.05l-1.09,10.32,2.18,2.43,5.54,1.09,2.35.34s-3.52.59-1.26,1.26c2.26.67,2.43,1.51,2.43,1.51l-5.03-.42,1.34,2.43h-1.51c-1.51,0-4.45-2.68-4.45-2.68,0,0-5.96-1.51-5.96-2.68,0-1.09,1.34-1.34,1.34-2.43,0-2.35,1.09-.17.92-10.15,0,0-2.43-1.76-3.77-.67s-1.34,2.43-4.19,2.85-7.72-.25-7.72-.25c0,0-1.09,5.96-1.34,6.79-.25.92,0,2.43,0,2.43l2.01.84s4.53.92,6.29,1.09c1.76.25,4.7,2.18,4.7,2.18,0,0-3.27-.25-2.43,2.43.34.92-4.87-2.68-4.87-1.34s.92,1.34-.92,1.34-2.18-1.34-3.94-2.43c-1.76-1.09-3.27-2.43-3.94-2.85s-1.09-.67-1.09-1.76,1.34-2.01,1.51-3.94c.25-2.01,2.43-4.45.92-5.28-1.51-.92-2.43-.25-5.96-3.27-3.52-3.1-1.51-3.27-4.19-7.3-2.68-3.94-1.09-6.79-5.96-7.05-17.45-.92-7.97-3.52-9.06-3.77s-1.76-1.34-2.18-2.18c-.42-.92.92-1.34,6.63-.67,0,0,3.1-2.68,9.48-3.27,2.52-.25,5.28-3.52,9.23-5.03s7.47-1.34,12.08-4.03c3.36-1.93,10.23-3.94,10.23-3.94,0,0,5.03-4.45,4.45-6.79-.67-2.43-3.44-8.47-3.44-8.47,0,0-1.85-4.7-1.85-8.89s.67-9.73,1.76-11.66c1.09-2.01,1.76-5.03,7.05-5.54,5.28-.42,7.3,3.1,7.3,3.1,0,0,.42,1.34,1.17,1.76.67.42,9.31,1.09,8.56,3.02-.34.84.25.92-1.09,1.51-1.34.67-6.21.42-7.47.42-1.51.17-6.96,1.09-6.96,1.09Z"/>
</svg>