<?xml version="1.0" encoding="UTF-8"?>
<svg id="Layer_1" xmlns="http://www.w3.org/2000/svg" version="1.1" viewBox="0 0 296.21 799.98">
  <!-- Generator: Adobe Illustrator 29.8.4, SVG Export Plug-In . SVG Version: 2.1.1 Build 6)  -->
  <defs>
    <style>
      .st0 {
        fill: #bfd8c0;
        opacity: .49;
      }
    </style>
  </defs>
  <path class="st0" d="M.07,526.47v-4.24l10.91-23.59,10.15-33.41-.02-7.2c-.03-9.72-3.84-18.47-9.58-25.97-7.48-9.76-10.21-21.83-8.54-33.95l-.37-11c-.22-6.56-.25-12.82-1.38-19.29-.12-.66.64-1.22,1-1.25,2.69-.27,5.44,5.51,5.38,10.2-.09,8.2,2.24,15.47,4.28,23.24,1.79,6.82,3.72,12.8,7.24,18.91,4.06,7.05,4.98,15.14,6.78,22.85l2.53-17.67,3.99-22.07c2.55-10.48,2.41-20.8-.29-31.21-3.38-13.04-3.77-25.94-3.85-39.37-.07-12.4,1.9-23.95,7.73-34.94,3.36-6.33,5.61-12.77,6.64-19.97s3.42-14.85,7.4-21.27c1.74.14,2.62,2.13,2.61,3.65-.1,11.75.7,23.16,3.47,34.71,4.77,19.92,5.2,35.34-3.98,54.18l-6.94,14.25c-2.46,5.04-2.71,10.83-3.61,16.34-1.23,7.52-3.8,14.32-6.45,21.39-1.03,2.74-1.57,5.58-1.73,8.66l5.36-10.37,5.58-8.35c4.41-6.6,8.87-12.67,13.86-18.87l11.84-14.72c5.93-7.38,9.46-15.3,12.37-24.11,2.61-7.89,3.91-15.16,3.7-23.65-.23-9.36-.34-18.96-4.73-27.49l-9.6-15.2c-5.94-10.8-10.03-22.21-9.81-34.73.05-2.86-.08-6.3.74-8.8l5.19-15.9c2.51-7.71-1.09-17.68,5.33-20.66.44,11,1.47,21.13,5.99,30.96l5.33,11.58c3.26,7.09,6.12,13.79,7.66,21.49,1.26,6.31,2.48,12.3,2.37,18.87l-.41,24.17c-.09,5.53-1.05,10.59-2.76,15.75-1.21,3.65-2.56,6.95-2.95,11.41,7.4-10.82,13.7-22.59,17.19-35.82,3.73-14.16,2.72-30.35,8.29-49.37,2.96-10.08,9.02-27.01,16.41-32.57l16.94-12.74c.92-.69,2.73-.52,3.32.1.54.56.88,1.91.55,3.03-1.69,5.66-2.25,11.16-3.18,16.94l-2.08,13.01-4.63,18.24c-4.13,16.26-16.83,43.24-29.83,54.38-6.27,5.38-11.39,10.16-15.51,17.42-2.18,3.84-5.96,6.77-7.28,11.37l-3.14,4.65-4.25,13.46,15.23-16.93c4.82-5.36,10.5-9.7,17.12-12.54l14.84-6.37c11.95-3.68,24.31-4.59,36.8-3.1,14.55,1.73,27.16-1.8,30.31-.05,1.76.98-.51,3.86-1.62,4.43l-7.23,3.7c-5.57,4.38-10.98,8.51-17.12,11.95-5.95,3.33-11.96,4.58-18.89,4.23-6.37-.32-13.29.18-18.74,3.54-1.82,1.12-2.93,1.31-4.94,1.93-5.73,1.76-11.08,3.19-17.19,3.42-5.76.21-11.89.02-17.38,1.81l-8.95,5.6c-3.73,1.48-5.57,5.38-7.89,8.41l-11.56,15.07c-3.84,5.01-8.11,9.1-11.32,14.92l11.94-5.29c8.49-3.76,15.55-13.46,34.44-14.53.66-.04,2.11-.94,2.57.48l-5.13,5.44-8.23,8.73c-2.81,2.98-6.13,5.3-10.26,6.14l-17.53,3.59c-4.01.82-7.64,1.72-10.91,4.31-12.15,9.68-18.37,24.1-18.94,39.63l-2.53,19.88c-1.22,9.58-4.33,18.17-8.11,27.04l-5.1,16.09-6.58,17.36,15.74-16.01c4.32-4.39,7.42-9.53,10.5-14.95l16.44-28.93,12.31-17.96c3.27-4.77,7.69-8.1,12.87-10.79l14.01-7.27c5.78-3,11.54-5.38,16.07-10.5,2.42-2.73,6.25-5.01,7.3-3.42,1.16,1.76-2.39,7.51-4.98,11.21-2.34,3.34-4.06,6.61-5.2,10.61-4.93,17.21-17.25,38.39-33.66,45.62l-13.9,6.12c-5.67,2.5-11.04,5.56-15.29,10.19,8.77-4.98,17.73-8.51,27.86-8.59l21.81-.16c11.32-.09,22.46-8.71,46-7.04.85.06,1.32.11,1.65.4,2.31,1.99-4.7,3.2-7.77,7.34-3.68,4.96-8.19,8.67-12.6,12.84l-4.51,3.37c-9.9,7.4-21.19,10.84-33.7,10.6l-21.43-2.08-23.36-2.75c-3.35-.39-7.88.33-10.43,2.12l-7.25,5.09c-3.53,2.48-7.36,5.54-10.24,8.82l-6.56,11.73ZM125.01,237.67c5.62-13.37,11.16-26.64,21.91-37.28,1.15-2.83,1.79-6.28,2.1-9.47l-15.98,11.93-2.81,6.28c-3.57,6.1-4.49,12.84-4.82,19.99l-.39,8.55ZM78.6,244.87c.21-7.8.08-14.23,1.58-21.17-5.26-10.25-7.96-21.09-8.32-32.17l-1.65,15.75c.73,9.33,1.25,18.47,4.49,27.14l3.91,10.45ZM135.56,228.71c2.28-2.27,4.69-3.76,7.7-4.9l3.31-20.28c-4.04,4.3-7.46,8.67-9.92,13.86l-8.45,17.86,7.35-6.54ZM117.77,266.7l5.91-25.41c-.3-7.54-.19-14.7.91-22.04.88-5.36,3.93-9.47,6.18-14.36-3.9,3.91-6.7,8.57-8.59,13.75l-6.8,18.63c-2.46,6.76-1.65,13.93,1.41,20.43,1.34,2.84.55,5.83.98,9ZM74.65,240.49c-3.53-9.2-5.04-18.42-6.13-28.66-2.45,5.19-3.6,10.37-4.17,15.76,2.29,5.38,6.04,9.13,10.3,12.9ZM138.47,242.49l4.4-16.74c-6.96,4.16-12.56,9.79-17.5,16.09l-6.46,27.99c4.84-10.79,10.51-19.81,19.57-27.34ZM87.72,267.32c-.57-7.32-.16-14.15,1.47-21.21-1.41-7.19-4.64-13.24-7.84-19.4-1.19,7.83-1.14,15.36-1.04,23.06,3.17,5.85,5.54,11.47,7.41,17.54ZM86.05,268.18c-1.41-6.3-4.27-11.12-6.75-16.6-2.02-4.46-4.31-8.71-7.96-12.01-2.89-2.62-5.16-5.33-7.11-8.76-.19,7.72.94,15.23,4.11,22.12,2.74,5.95,12.01,9.26,17.7,15.25ZM109.08,294.52c6.92-6.05,11.5-13.37,16.17-20.75,4.28-9.02,8.61-17.5,11.66-27.07-5.05,5.03-9.37,10.17-12.66,16.39l-7.15,12.95c-1.28,6.82-4.88,12.31-8.02,18.48ZM106.57,296.4l3.75-7.21c4.22-6.93,5.92-14.44,5.99-22.53.03-3.87-.12-7.36-1.92-10.85-1.02-1.97-1.1-4.14-1.44-6.19-1.75,5.26-1.51,10.38-2.35,15.58l-3.19,19.8-5.66,16.06,4.81-4.66ZM91.49,286.9c.7,4.5-.55,8.62.47,12.52l.69-25.47c.21-7.73.07-15.07-2.47-22.73l-.95,8.15.06,13.29,2.2,14.24ZM45.57,307.29c2.8-7.64,3.21-15.43,3.71-23.68l.61-10.27c.32-5.36,1.77-10.3.84-15.79-3.69,6.9-5.31,14.36-6.77,22.19-.83,4.43-1.32,8.34-.17,12.91,1.2,4.8,1.92,9.5,1.79,14.65ZM90.17,295.39c.28-8-.73-15.88-3.15-23.05-2.02-3.21-5.68-6.08-8.64-8.19l-7.54-5.37c2.19,5.6,5.32,10.24,8.68,15.03,7.99,11.4,8.54,22.63,8.5,35.92l2.16-14.34ZM45.43,315.03l5.04-5.98c1.65-2.89,5.15-6.48,4.55-10.26l-3.69-23.16c-.86,3.4-.23,6.46-.39,9.76l-.72,9.08-4.8,20.55ZM39.09,333.17l2.69-13.26c1.27-6.28,2.94-12.91,1.85-19.3l-1.98-11.58-8.04,18.84c.16,4.74,1.03,9.03,2.71,13.38,1.67,4.01,2.36,7.97,2.77,11.92ZM40.7,346.05c2.79-5.73,5.27-10.54,8.79-15.4,3.93-5.43,6.39-11.52,8.12-18.01l-1.54-10.31c-1.89,6.76-9.7,12.55-12.37,19.48-2.88,7.5-2.74,15.92-3,24.23ZM169.65,314.8c2.68.05,5.8,2.04,7.99.49l9.55-6.78c2.09-1.48,4.85-1.56,6.74-4.08l-14.11,2.07-11.34,2.67-14.29,5.32,15.46.31ZM138.24,314.16c8.99-.82,13.44-1.06,18.07-9.42l-13.26.55c-3.9,1.04-7.35,7.83-13.52,9.67l8.72-.8ZM158.16,311.22l15.13-4.94-14.51-1.5c-2.6,2.6-3.75,5.84-6.77,7.8,2.22.23,3.93-.65,6.14-1.37ZM123.57,315.43c5.47-2.4,9.82-2.87,15.22-9.54-8.76,1.5-17.24,4.16-24.32,9.08l-5.45,6.85,14.54-6.39ZM38.85,346.9l-.52-6.99c-.59-7.91-1.69-15.39-4.63-22.73l-1.27-5.79c-1.72,8.41-2.66,17.04-1.83,25.83.74,7.8,6.33,11.96,8.65,19.14l-.41-9.46ZM162.47,323.75l11.89-5.89c-5.77-2.17-11.77-1.55-18.17-1.1l-12.72-.92-11.38.65c.82,1.31,2.02,1.14,3.04,1.6l14.58,6.52c4.08.99,8.8.27,12.77-.87ZM88.7,337.06l15.94-12.41,6.83-8.42c-6.61,3.22-11.53,8.09-16.5,13.28-2.03,2.69-4.68,4.59-6.28,7.55ZM131.67,328.35c4.62-1.8,8.68-3.1,13.16-3.2l-10.43-5.16c-10.39-5.14-18.14.2-28.02,5.76l20.18,4.59,5.1-1.98ZM41.66,365.04c1.56-1.58,1.14-3.18,1.9-4.55l6.74-13.31c4.4-8.69,7.52-17.88,7.18-28.04-2.36,6.12-5.8,11.22-9.67,16.47-3.27,4.43-4.92,9.62-7.26,14.61l1.11,14.83ZM107.82,333.97c5.32-.43,10.39-.33,15.53-2.44-6.91-1.96-13.01-3.35-19.54-4.12l-9.99,7.7,14-1.14ZM39.42,363.38c-1.07-5.94-3.48-10.62-6.18-15.42l-2.86-5.09c.66,9.69,1.67,18.88,4.04,28.14,1.69,6.62,2.07,12.89,2.18,19.96,2.84-8.75,4.49-18.29,2.82-27.59ZM60.5,384.49l16.62-3.17c7.71-1.47,15.31-10.46,20.41-17.13-8.98.86-17.08,4.28-24.15,9.74-9.26,7.15-18.98,6.72-24.76,15.07,4.11-2.54,7.61-3.68,11.89-4.5ZM24.81,444.98c-.6-6.42-2.38-12.19-4.02-17.98-1.31-4.65-3.71-8.6-6-12.76s-3.1-9.03-4.48-13.73c-1.93-6.61-3.98-12.97-4.2-19.96-.13-4.18,0-8.57-2.99-11.75.75,6.81,1.2,12.97,1.22,19.6l.04,12.69c-.61,11.37,2.43,22.09,9.56,30.96,5.61,6.97,8.15,15.18,9.38,24.25l1.47-11.32ZM93.03,424.02c10.42-6.18,13.17-9.79,18.84-21.09-3.17,1.17-4.47,4.09-6.92,5.61l-14.22,8.82-6.94,12.15,9.24-5.49ZM70.45,443.93l6.97-9.65c4.57-4.52,8.27-9.34,10.46-15.79l-12.45,6.51c-3.38,1.77-5.36,4.54-6.31,8.29-2.1,7.24-4.12,14.13-7.45,21.15,3.93-2.75,5.96-6.61,8.78-10.51ZM85.54,436.41c12.13-3.06,13.18-2.57,16.87-16.83l-13.37,8.79c-4.48,2.95-8.12,6.67-11.94,10.17l8.44-2.13ZM44.39,472.34c4.61-3.93,9.32-7.53,12.51-12.55,5.67-8.94,8.49-18.84,11.5-28.99l-12.95,17.25-17.37,29.68,6.31-5.39ZM57,463.03l22.52-8.49,9.49-5.81c3.14-4.48,5.9-8.95,8.06-14.34-7.83,4.74-16.5,2.79-23.72,8.53-3.21,5.32-7.27,9.52-11.25,14.17l-5.09,5.95ZM55.66,472.49l13.27-6.1c6.02-3.38,11.58-7.03,15.89-12.62l-10.2,4.42c-6.74,2.92-14.02,4.39-20.42,8.05l-6.39,5.67c-7.04,5.15-12.78,11.39-17.67,18.91,10.91-8.24,11.4-11.84,25.52-18.33ZM105.33,481.27l11.42-5.82c5.58-2.85,11.89-3.32,17.71-4.59-18.86-.49-28.96,2.51-41.58,15.58,4.91-.72,8.35-3.08,12.45-5.17ZM112.26,490.71l12.3-10.48,6.36-7.05-13.46,3.52-11.48,6.12c-4.48,2.38-8.7,4.57-13.45,5.81,6.65,1.71,12.8,2.11,19.72,2.07ZM85.57,487.43c2.67-.01,5.4-1.74,7.16-3.25l8.64-7.43c-5.4,1.21-10.1,1.58-15.35,1.42-7.68-1.56-9.45,6.81-17.57,9.34l17.13-.08ZM55.8,487.27c5.29-.37,10.55-.45,15.38-2.93l7.3-6.04c-9.43-.65-19.42-.15-28.68,4.05-7.14,3.23-13.67,6.97-20.08,11.84,8.39-3.06,16.8-6.26,26.08-6.91ZM87.24,500.48c-1.36-1.16-2.95-1.14-4.27-1.8l-12.88-6.55c-4.39-2.23-9.29-3.72-14.35-3.14-8.99,1.04-17.49,3.32-25.53,6.95l6.85.05,23.72,3.02c8.94,1.14,17.49,2.57,26.46,1.47ZM108.37,493.34l-15.55-2.66c-5.41-.93-10.92-.86-16.44-1.14l-8.38-.42,18.69,8.81c2.32,1.1,5.81,1.23,8.38.98,5-.48,9.21-3.4,13.31-5.57Z"/>
  <path class="st0" d="M294.47,742.47c-6.23-6.2-13.56-9.96-22.17-11.44-4.95-.85-9.34-2.55-13.8-4.86l-13.87-7.2c-4.94-2.57-10.54-2-16.01-1.7-10.13.55-19.36,3.71-28.18,8.94-4.46,2.65-8.68,5.58-14.14,6.03l21.63-14.71,17.25-13.6c10.83-8.53,18.29-21.54,18.21-35.4l-.09-15.61c-.07-12.34,5.96-20.93,3.13-32.45-.57-.25-1.34-.35-1.55-.26-.44.17-.62.89-.76,1.45-1.4,5.76-5.29,9.76-8.92,14.26l-14.22,17.64-14.37,21.08c-9.6,14.09-6.52,28.7-10.7,39.35-1.7,4.34-4.33,8.13-7.09,11.99-1.92,2.67-5.81,3.42-8.08,5.74l-6.27,6.43c-9,9.23-13.99,16.69-16.51,30.49-2.12-6.68-1.81-12.87-1.65-19.56.18-7.18.99-13.86,2.88-20.85,1.92-7.1,2.79-14.43,6.14-21.02l10.77-15.55c5.7-11.03,12.86-20.39,22.46-28.29,7.19-5.9,12.4-13.01,16.83-21.04,3.79-6.88,7.04-13.52,9-21.08l4.71-18.25,3.32-11.91,1.33-14.8c.06-.72-.68-1.74-1.12-1.91-1.98-.77-7.12,5.4-9.07,9.53-5.46,11.56-18.07,17.45-25.89,29.01l-9.2,13.61-6.05,11.94c-3.33,6.55-4.98,13.4-5.81,20.77-.8,7.16-3.19,13.56-5.21,20.43l-6.86,23.31-5.59,17.81c-3.31-16.44-8.7-42.36-2.75-56.85l11.14-27.1,2.8-8.69,5.22-17.56c3.26-7.19,5.17-14.42,5.61-22.33l.82-14.37c.39-6.93,2.98-13.35,4.63-20.07l2.43-9.85c1.16-4.72,2.56-9.15,2.75-14.13.38-9.99-1.26-19.81-4.25-29.32-3.11-9.91-8.53-17.87-15.37-25.5-5.94-6.62-9.44-14.85-13.03-22.93-.75-1.7-2.87-3.22-4.43-1.88-1.22,1.05-1.31,3.75-1.21,5.37l1.42,22.88.65,25.47c.53,20.78,4.25,30.71,10.54,49.31l7.43,21.97c2.46,7.29,3.62,14.63,4.76,22.32-1.06,5-2.79,9.54-4.86,14.22l-3.76,13.31c.27,1.04-.73,1.24-.77.12.4-9.34-1.07-17.99-3.97-26.87-14.26-17.53-30.87-24.64-53.29-23.38l-9.27,2.8c-6.25,1.89-14.61-.34-22.17,3.09-5.37,2.45,3.51,3.69,6.44,6.27,2.59,2.28,4.73,5.07,7.81,6.82,6.24,3.52,13,5.41,19.95,6.7,8.31,1.55,16.01.86,23.94-2.59,5.02-2.18,11.07-3.96,16.42-2.76,6.3,1.41,9.77,7.44,10.42,13.45,1,9.3,2.91,19.16-.62,28.05l-10.63,26.73-2.27,10.91c-2.99-4.59-4.07-9.31-4.9-14.6-1.7-10.9-5.63-21.22-13.08-29.43-.9-.99-2.24-1.94-2.78-3.04-6.4-2.74-12-6.54-17.42-10.74-2.86-2.22-6.66-3.21-10.15-1.67l9.59,9.22c5.73,7.52,1.44,20.36,12.02,27.29,11.07,7.26,13.26,18.45,19.97,22.55l6.11,3.73c.73,13.48,2.81,26.55,5.57,39.87,1.05,5.05-.35,9.96-.35,15.1-2.94-1.55-3.75-5.22-6.07-7.64-6.58-6.9-11.65-14.17-15.94-22.55-3.05-5.96-7.79-9.84-12.44-14.28l-13.71-13.09c-6.79-6.48-14.74-10.03-24.04-11.75-17.53-3.22-29.5,3.31-40.87,2.8-6.84-.31-12.34,2.03-18.48,4.83-6.42,2.93-15.87-.61-17.19.42-.44.34-.57,1.33-.07,1.97,2.38,3.13,5.78,4.16,9.07,5.86l11.47,5.92,13.25,4.65,10.35,1.33c3.95.51,7.82.21,11.68,1.42,5.74,1.79,11.4,3.07,17.47,2.81l26.68-1.16c9.24.96,18.11,4.16,25.49,9.67,3.94,7.73,8.25,14.6,14.52,20.56,3.41,4.42,6.87,9.6,7.49,15.48l-.23,17.76c-.03,2.34.38,4.41-.34,6.83-2.37-.84-3.48-2.5-4.2-4.72l-3.97-12.24c-1.65-5.09-3.39-10.49-7.34-14.31l-9.33-9.04c-1.62-1.56-2.45-3.51-4.7-4.71-.81,8.58,1.62,17.05,7.36,22.58,4.64,4.47,8.34,9.24,11.72,14.71l7.49,9.67c3.63,4.69,5.48,10.21,6.76,15.99l3.87,17.53h2.04l-4.39-20.72c-1.75-8.24,3.1-21.59,7.9-29.46,3.97-6.5,9.7-11.43,15.74-15.79,7.02,3.32,13.63.86,22.45,3.92,9.31,3.24,18.61,4.14,28.39,3.69,11.23-.51,23.52,8.86,40.69,4.57,7.06-1.77,13.96-1.71,21.14-.1,1.24-1.51-.44-2.77-1.3-3.62ZM240.33,677.24c-3.21,5.26-8.09,9.05-13.77,11.56l-8.25,5.72c3.32-4.71,5.39-9.6,8.01-14.66l6.99-13.48c1.83-3.53,3.48-6.48,7.96-7.61.12,6.07.3,12.17-.94,18.47ZM244.72,627.29c.91,4.17-.61,7.79-1.55,11.56-1.46,5.89-2.3,11.54-1.98,17.7-2.41,1.44-5.62,2.01-7.02,4.6l-5.25,9.71,2.51-12.52c1.22-6.11,11.25-19.26,13.29-31.05ZM226.6,648.81l15.92-18.91c-2.45,10.62-9.57,18.99-12.79,29.1l-3.05,12.9c-3.06-7.91-2.96-15.68-.08-23.09ZM216.19,665.04l7.41-12.09c-2.53,11.02,3.04,20.27,1.43,24.98-2.85,8.34-7.62,15.8-14.22,22.42.75-4.36,3.7-8.16,3.09-12.92-.98-7.52-1.78-15.76,2.29-22.39ZM199.68,707.54l3.02-19.26c1.89-6.98,4.89-13.17,10.18-18.29-1.52,5.9-1.6,11.26-.52,17.05.6,3.24-.94,6.36-1.74,9.45l-2,5.83-9.92,10.68.98-5.46ZM204.92,709.06l8.64-9.01c3.57-3.72,14.58-10.51,20.55-13.42l5.29-5.2c-2.54,6.67-6.29,13.03-11.81,17.75l-9.93,8.48-14.13,10.36-11.16,6.71c3.64-6.15,7.91-10.83,12.55-15.67ZM201.81,656.12l-12.53,7.72c-3.93,1.21-5.91,4.36-9.01,6.9l13.09-17.5c3.78-5.05,8.48-8.51,14.45-10.37l7.35-4.41c-2.81,6.13-7.14,13.84-13.35,17.66ZM231.89,576.4l-1,12.24c-.32,4.02-1.79,7.69-2.93,11.55-1.03,3.45-.98,7.38-3.06,10.82-2.43,4.03-6.15,7.87-10.1,10.03l-7.94,4.33,11.88-17.88c6.41-12.69,4.71-24.83,13.15-31.09ZM222.65,589.98c-1.29,6.83-2.96,13.89-6.99,19.75l-11.21,16.28,2.81-12.56c1.14-5.05,2.83-10.58,6.52-14.37l8.87-9.1ZM198.2,616.01l9.91-11.8-2.79,11.04c-.95,3.77-1.91,7.36-2.85,11.11l-2.05,8.19c1.43-1.15,2.47-2.14,3.38-3.28,2.82-3.54,6.44-5.43,10.05-8.15l8.08-6.12,2.8-2.8-5.27,15.29c-1.96,5.69-7.53,10.63-13,12.77-3.97,1.56-7.38,2.25-10.54,5.31.44-3.15,2.83-4.31,1.15-6.74-2.48,6.08-4.97,11.65-9.28,16.58l2.09-8.96c.57-7.19,1.25-14.19,3.19-21.19,1.1-3.99,3.17-7.56,5.13-11.25ZM178.7,658.51c1.33-6.26,2.47-12.25,5.01-18.09,2.26-5.19,3.97-10.27,8.27-14.87-3.72,10.77-2.23,27.46-7.61,36.12l-9.6,15.43,3.93-18.59ZM169.46,691.63l6.98-13.47c2.06-3.98,5.68-7.28,9.11-10.18l14.44-9.04c-1.29,2.55-3.5,3.9-5.62,5.75-8.53,7.43-14.78,16.3-20.23,26.41l-6.56,9.15c.11-2.94.55-6.05,1.88-8.62ZM188.59,536.36c-1.6.07-1.91,1.24-2.67,2.13-4.32,5.06-7.71,10.42-9.81,16.7-3.64-15.39,1.98-19.68,3.31-23.9l4.42-13.96,2.75-10.97c2.53,9.94,3.54,19.97,2,30ZM173.83,480.72c4.87,6.26,9.47,13.15,10.98,21.1,1.1,5.77-1.5,11.28-2.96,16.69-1.64,5.21-2.21,10.44-5.78,15.32l-.29-12.68-3.81-17,1.49-13.51.37-9.92ZM169.27,475.42c1.92,2.36,3.57,4.86,3.17,8.17l-1.85,15.18-8.94-22.25c-2.2-5.46-3.34-10.63-3.55-16.3l-1.74-8.44c3.74,8.49,7.15,16.53,12.91,23.64ZM160.16,478.62c4.39,8.76,7.66,17.63,10.19,27l1.01,9.44c-4.18-10.55-11.49-17.31-13.87-28.44l-.98-17.17,3.65,9.17ZM157.49,492.61c2.23,5.72,5.53,10.24,8.62,15.15l5.36,11.23c.52.46,1.23.65,2.09.74,1.61,7.98.35,18.28-1.05,27.02-1.76-5.1-3.62-9.25-7.04-12.94-2.62-6.34-6.21-12.07-7.35-18.72l-.63-22.48ZM172.23,567.37l-4.86-15.79-7.81-26.49c1.99,4.54,4.14,8.14,6.99,11.89l6.01,12.95c.79,1.69,1.59,2.19,1.75,4.43.17,2.42,1.24,5.36.54,8.05-.62,2.39.97,3.56,1.3,5.06,1.27,5.74,1.86,11.44,1.89,17.62l-5.81-17.72ZM176.82,558.64c1.97-8,5.97-14.7,11.14-20.64l-3.39,14.62c-3,8.7-4.48,17.26-5.05,26.7l-2.7-20.68ZM124.01,577.61l10.51,7.11c-5.53-1.4-10.8-.32-16.47-.3-4.36.02-8.93-6.05-14.14-4.64,6.32-3.74,13.25-3.51,20.1-2.17ZM81.67,582.37c3.45-1.34,6.43-1.23,9.63-1.43l10.06-.63c1.44-.09,3.98.29,5.5,1.05l7.41,3.71c-9.27,2.51-18.23,2.5-27.01-.04l-5.59-2.66ZM89.75,587.4c7.57,1.7,14.89,1.55,22.27.14-4.49,3.87-8.4,5.84-14.39,5.8-2.92-1.11-5.73-3.05-7.88-5.94ZM102.17,595.03c6.24-1.7,10.22-6.63,14.75-6.94l5.09-1.59c6.16-1.93,12.53-.34,18.46,2.35-5.29.52-9.04,2.21-13.06,5.02l-10.08,5.04c-5.23-1.1-9.98-1.53-15.16-3.88ZM121.04,599.18l11.2-6.17c3.67-2.03,8-2.35,11.92-2.71,1.48.99,2.82.97,4.32,2.72-9.68,1.17-17.27,7.22-27.44,6.16ZM144.96,588.49c-6.32-4.89-12.81-6.17-18.42-11.1,12.09,1.61,22.81,7.46,31.83,16.52-4.74-.7-9.45-2.36-13.41-5.42ZM145.82,665.12l-6.69-9.47c-2.43-3.46-1.91-14.04-5.37-21.62,7.35,7.14,10.8,20.32,12.06,31.09ZM106.32,615.74c2.91.05,5.36,1.88,7.81,3.53l9.05,6.09c5.38,3.62,9.06,1.86,11.64,17.63-4.62-5.41-9.27-9.85-15.08-13.37-3.95-5.08-8.31-9.19-13.42-13.88ZM117.14,628.93c1.23.47,1.73,1.67,2.7,2.62,5.33,4.03,10.83,7.76,14.06,14.64-2.83-1.47-5.15-2.92-8.29-3.69-2.61-.64-4.7-2.74-6.9-4l-1.57-9.57ZM125.12,649.36c-2.77-2.31-4.85-4.58-5.55-8.36,4.87,3.89,13.87,4.23,15.94,9.54l3.3,8.48c-2.06-1.08-3.93-1.54-5.49-2.84l-8.2-6.82ZM140.94,667.46l-5.33-7.96c7.1,2.15,9.76,7.64,13.3,14.48-3.6-.47-5.9-3.42-7.97-6.52ZM79.13,664.78l5.34,1.31c5.59.46,10.04,4.79,13.73,8.72,2.39,2.55,4.95,4.42,6.42,7.89-6.54-4.57-13.59-7.44-21.32-9.67l-23.97-6.9c6.38-1.46,13.18-2.97,19.8-1.35ZM29.69,671.57c3.05-1.95,5.98-3.01,9.6-3.13l13.32-.44c4.48-.15,8.69-.5,13.05,1.58,1.58.75,3.7.25,5.49,1.95-7.44.61-14.58,2.37-21.96,4.29l-12.88.65c-5.97.3-11.79.62-17.49-1.93,3.87-1.08,7.69-.93,10.87-2.97ZM29.38,683.54l-9.4-4.98c-2.9-1.53-6.29-1.72-8.82-4.52,7.7,2.45,15.26,5,23.53,4.23l13.08-.25-7.42,4.58c-3,1.85-7.63,1.88-10.97.94ZM39.34,686.6c-1.18-.35-2.48.59-3.63-.8,2.32-.08,3.84-.97,5.62-1.96l13.14-7.24,11.05-2.4c7.59-1.66,15.09-.47,22.26,2.66-6.66-.68-12.06,1.23-17.92,4.34-13.84,7.36-14.26,10.22-30.52,5.4ZM75.42,691.88c-1.47.25-2.19,1.41-4.24.89l-12.91-3.31,19.44-9.76c5.13-1.74,11.24-1.87,16.42-.41,4.26,1.2,7.63,4.03,11.28,6.36-3.94.27-7.65.21-11.65,1.84-6.25,2.55-12.15,3.34-18.34,4.39ZM106.42,692.27l-27.42.98,14.05-3.83c4.96-1.36,10.89-3.21,15.99-1.12l11.32,6.64c-4.59-1.06-8.88-2.85-13.94-2.67ZM108.54,685.32c-1.79-1.05-1.92-1.68-2.79-3.34-2.76-5.27-7.32-8.9-11.82-13.51,4.87,1.43,8.9,4.76,12.74,8.38l13.41,12.67c1.94,1.84,4.42,2.9,5.76,5.91l-17.3-10.11ZM139.31,747.48l-8.84-8.97c-4.07-4.12-4.96-10.44-4.73-16.18l6.47,6.86c5.49,5.82,9.62,12.01,12.1,19.55l3.74,11.36-8.74-12.62ZM245.98,721.62l-16.36,3.34-9.94-.14,7.16-4.75c6.23-2.2,13.08-.69,19.14,1.55ZM223.18,719.91c-5.12,5.98-12.74,7.3-20.83,7.82,6.47-4.49,13.43-6.54,20.83-7.82ZM259.45,744.81l-13.37-3.24-6.98-2.3-15.35-5.73c2.75,3.67,6.88,3.93,10.4,5.65-8.88,1.01-17.53-.04-26.12-2.76-5.87-1.87-11.23-2.8-17.92-2.7l8.42-3.87c4.15-.95,8.7-.18,12.94-.12l7.23,1.79c-1.92-2.25-4.68-2.23-7.32-3.54,5.31-1.36,11.67-3.26,17.11-.95l10.51,4.47,12.32,6.93c5.54,3.12,11.09,4.72,17.3,6.52-3.08,1.19-6.16.58-9.17-.15ZM275.12,744c-7.68-.09-15.38-2.96-22.1-6.65l-15.1-8.29,18.82,5.91,18.5,2.53c3.78,1.6,7.33,2.5,11.2,5.31l-11.32,1.19ZM279.71,737.43c-3.7-2.05-7.7-2.05-11.76-2.62l-8.8-1.22c-3.69-.52-7.2-1.24-10.75-2.45l-14.74-5.03c5.09-1.79,10.05-3.08,15.22-2.77,8.02,3.51,13.4,8.27,23.2,9.63,6.69,1.5,13.27,3.61,18.4,9.12-3.93-.74-7.24-2.89-10.77-4.66ZM146.17,781.34l-9.46-11.72c-4.22-5.22-8.63-9.28-13.57-13.81-11.26-10.33-24.95-17.29-40.58-17.2l-6.18.04c-5.79.03-11.24-.45-16.91-1.9-3.65-.94,1.84,7.4,12.28,11.85,5.09,2.16,11.04,3.64,15.12,7.57l13.01,12.52c2.76,2.66,5.7,5.1,9.44,6.33l20.83,6.83c7.15,2.35,13.67,6.91,19.31,11.95,2.12,1.89,3.97,3.97,5.61,6.18h3.01l-2.91-5.03-9-13.61ZM62.82,739.75l13.66,1.25c2.13.19,4.47.91,6.59.36,6.69-1.72,13.52,3.76,18.82,9.3l6.56,6.87c-1.17.27-2.87-.22-4.02-1.09-4.41-3.36-9.51-4.13-14.38-5.92-4-1.47-7.17-2.18-11.47-2.44-5.97-.37-11.52-4.2-15.76-8.33ZM82.63,750.53c3.15-.94,5.35,1.87,7.92,2.27,4.95.77,9.02,2.57,13.32,5.08l14.23,6.08c-4.04-.83-7.66-.24-11.74.04l-6.3-1.06c-8.46-1.42-7.9-8.23-17.43-12.41ZM129.08,779.36l-11.88-3.43c-6.98-2.01-13.04-5.39-17.83-11.29,4.09,1.81,7.98.89,12.14.51,8.22-.75,15.5,3.99,20.52,10.06,2.64,3.19,5.82,5.5,7.54,9.22-3.33-1.96-6.66-3.97-10.49-5.07ZM143.47,785.61l-6.25-6.92c-5.61-6.2-11.03-13.18-18.74-16.76-5.83-2.71-10.73-5.69-14.51-11.06l-8.14-7.86c6.08,1.61,12.59,3.86,17.68,8.21l15.15,12.96c8.26,8.55,15.29,17.48,21.68,27.64-2.57-1.69-4.74-3.85-6.87-6.21Z"/>
  <path class="st0" d="M117.17,58.28c-5.08-3.84-10.67-6.14-16.15-9.01-1.37-.72-1.23-.83-3.04-1.25l-28.2-6.51c-13.06-2.01-24.55-6.23-35.89-12.7C22.85,22.51,13.36,15.23,5.24,5.44,4.01,3.96,2.15,1.99,0,0v2.65c4.12,4.08,7.79,8.69,10.84,12.81l9.8,13.23c2.49,5.34,2.61,12.68,1.15,18.41-2.31,9.05-5.36,17.47-4.75,26.94.82,12.71,4.41,25.05,9.87,36.48,3.27,6.85,13.69,18.25,15.48,17.22.58-.33.68-1.03.62-1.87l-1.11-14.77c-.3-4.08-.92-8.92.77-12.62.66-1.45.22-1.68.47-2.98l3.94-20.12c1.44-16.88-5.05-22.56-12.67-34.37l-9.84-15.24,10.81,8.18c5.3,4.01,9.63,8.97,12.66,14.92,4.67,9.15,15.46,21.24,24.91,25.1,12.54,5.13,25.52,7.04,39.12,6.72,9.03-.21,17.51.41,26.35,2.13,1.04.2,1.9-.23,2.05-.84.84-3.37-16.71-18.72-23.3-23.7ZM24.27,97.83c1.63-1.12,1.42-3.2,2.02-4.79,1.36-3.65,3.94-6.23,6.07-9.2-2.52,7.48-2.85,14.75-.1,22.01.63,4.24,2.37,8.36,5.75,11.99.26-3.63-2.74-6.45-3.76-10.03-2.94-10.23-1.91-18.03,2.06-28.47,1.37,5.84,2.18,10.84,4.43,16-1.05,4.96-1.72,9.71-1.2,14.65l1.27,14.88c-8.42-7.24-13.96-16.59-16.54-27.04ZM41.34,91.79l-3.71-15.79c-.88-3.73,1.7-8.3,1.48-12.88,1.63,3.9,4.33,7.5,5.01,11.63.93,5.62-1.51,11.37-2.78,17.04ZM45.01,71.24l-6.52-14.75-2.53-9.3c5.45,7.44,9.33,14.71,9.05,24.05ZM34.98,52.36c2.38,8.4,2.5,17.41-1.2,25.19l-7.5,10.24c-1.82,2.49-2.32,4.79-2.7,8.06l-2.79-11.9c-.8-3.4-1.52-7.54.35-10.32l8.26-12.32,5.58-8.95ZM34.13,49.09c-2.4,5.1-5.5,9.23-8.74,13.74l-5.99,8.36c.6-7.46,2.22-14.46,4.45-21.53,1.89-6.02,1.1-11.79.44-18.62,4.31,5.4,7.04,11.71,9.84,18.05ZM117.31,61.63c-6.46-.83-12.27-1.06-18.48-.51-4.06.36-7.84-.23-11.65-1.65-7.33-2.14-14.44-3.8-21.36-7.32,3.29.17,6.25.66,9.54.18l18.69-2.47c8.54,2.47,16.31,6.17,23.26,11.77ZM73.39,71.9c-8.12-3.24-19.08-15.14-23.08-23.05-2.9-5.75-6.89-10.15-11.5-14.92,9.57,4.84,19,7.6,29.3,9.44l22.74,5.48c-9.65,1.51-18.67,2.5-28.6,1.56-7.01-2.73-11.75-7.99-18.04-13.02,3.71,8.12,12.44,11.68,19.42,16.77l15.53,16.02c-2.02-5.85-6.98-9.05-10.24-14.07l16.8,5.12c.99.31,1.26,1.51,1.82,2.02l16.73,15.12c-10.95-.05-21.1-2.58-30.88-6.47ZM107.59,78.54l-18.01-15.78c7.46,1.27,13.9,4.04,20.81,6.44,6.31,2.19,12.14,4.63,17.14,9.52-6.96-.28-13.07-.47-19.94-.18ZM130.41,79.14c-8-9.41-20.36-12.24-31.72-16.21,5.43-.73,10.47-1.06,15.67-.02l6.26,1.25c6.04,5.02,11.65,9.93,16.92,16.16-2.39-.56-4.45-1.16-7.13-1.18Z"/>
</svg>