<?xml version="1.0" encoding="UTF-8"?>
<svg id="Layer_5" xmlns="http://www.w3.org/2000/svg" version="1.1" viewBox="0 0 259.82 1058.26">
  <!-- Generator: Adobe Illustrator 29.8.4, SVG Export Plug-In . SVG Version: 2.1.1 Build 6)  -->
  <defs>
    <style>
      .st0, .st1 {
        fill: #bfd8c0;
      }

      .st1 {
        opacity: .49;
      }
    </style>
  </defs>
  <path class="st1" d="M259.69,523.36c-.48-2.22-2.25-4.23-2.89-6.32-5.57-18.09-14.04-27.08-16.01-34.03-5.72-20.2,3.87-49.78-6.46-84.58-2.37-7.96-7.06-14.92-11.21-21.88-5.06-8.46-6.6-16.75-6.54-26.45.08-10.93-6.53-24.78-11.55-23.32-1.61.46-1.29,2.24-1.49,3.82-3.05,23.58-13.7,45.92-12.82,64.94.89,19.14,10.38,36.15,24.18,48.8,5.48,5.03,9.17,10.83,12.18,17.41l6.61,14.48c-8.1-7.47-15.89-14.34-25.4-19.54l-19.48-7.62c-19.3-8.68-35.84-22.04-49.2-38.29-3.73-4.53-4.78-9.77-5.7-15.13-1.11-6.46.77-11.79,5.55-15.99,5.32-4.66,9.6-10.69,13.68-16.67,8.05-11.8,11.85-25.24,13.03-39.49.95-11.36-.67-22.39-3.03-33.52l-3.18-14.97-1.24-6.49-4.79-31.01c-1.71-11.08-27.51,20.54-21.03,63.23,2.95,19.37,3.79,38.3,1.95,57.8-.56,5.83-.1,11.13-2.32,16.97-1.08-4.91-1.41-9.17-1.63-13.95-.94-20.62-7.1-51.49-22.63-64.23l-18.46-15.16c-7.21-5.92-13.37-12.33-17.37-20.7-.42-.89-1.77-1.21-2.32-.95-2.58,1.18-2.41,7.78-2.19,13.12,1.11,27.47,6.44,51,26.55,70.51l18.92,16.21c5.21,4.46,8.72,9.57,12.04,15.21,3.25,5.52,5.86,10.57,5.71,17.29-.2,8.3,2.69,15.78,7.85,22.13,7.86,9.66,16.75,17.36,26.65,25.18l-14.6-4.8c-7.47-3.48-14.54-4.97-22.72-6.12-11.66-1.64-23.09-1.57-34.12,3.16l-27.43,9.38-30.85,10.43c-.92.31-1.35,1.12-1.51,1.59-.17.47.16,2.04.97,2.1,19.83,1.46,34.7,17.68,50.92,16.39l31.36-2.5c6.39-.51,12.2-2.97,17.29-6.61l14.93-10.69c5.7-4.08,12.81-7.09,19.88-5.86,2.67.47,5.02,3.27,7.74,3.17,3.36-.14,5.55.99,8.45,2.07l20.3,7.5c8.76,4.72,16.85,10.56,23.49,18.14-7.42-4.77-14.31-9.68-23.12-8.51l-16.63,2.22c-7.48.99-13.94,5.36-17.66,11.87l-9.59,16.74c-3.13,5.49-6.29,9.99-11.1,13.64-10.53,7.98-15.38,17.63-9.26,17.59,19.06-.12,36.64-1.23,48.71-16.61,7.67-9.77,28.78-35.65,37.32-33.27,6.09,1.69,11.28,6.79,13.86,12.36l12.17,26.27,4.75,21.98.49-13.56.13-3.6c.02-.43-.03-.86-.13-1.28ZM150.7,352.88c-.25,4.35-.41,8.23-2.7,11.75,1.23-8.5-2.54-16.65-7.08-23.82-1.81-2.71-2.27-5.72-2.46-8.95l-1.16-20.29,9.9,16.58c3.57,7.76,3.98,16.26,3.5,24.73ZM153.06,357.73c.5-5.08,1.3-10.07-.09-16.15l5.56-23.82,4.55-9.21c1.65,17.39-1.24,34.21-10.02,49.18ZM157.78,277.93l3.92,20.83c1.06,5.62-2.85,11.02-5.17,16.01l-4.06,16.35-4.47-20.25c-.98-4.45-2.02-8.87-2.25-13.42,3.32-6.86,6.03-14.34,12.03-19.52ZM153.69,256.92l2.48,13.9c1.19,6.71-6.87,10.51-10.15,20.51-.35-5.83,2.14-10.58,3.1-15.88,1.19-6.52,2.12-12.62,4.57-18.53ZM139.4,259.75c1.72-8.15,6.17-15.09,11.68-21.58,1.51,6.22,2.66,13,.25,19.3-2.06,5.43-3.19,10.58-3.85,16.3l-3.57,12.68c.24-9.54-5.58-21.66-4.51-26.7ZM137.61,264.21l2.81,12.18,2.77,20.69,3.81,19.17c.5,2.57,1.7,4.88,1,8.41l-10.75-17.99c-4.39-13.88-2.77-28.84.36-42.46ZM135.71,375.75c2.36-11.42,2.23-22.46,2.88-34.42,3.84,5.94,6.95,12.28,7.31,19.46.1,2-.24,3.91,1.66,5.02l-10.4,10.71c-.81.83-2.01.79-1.93.57l.48-1.34ZM113.55,308.22c-.59,2.2-.43,4.27.59,6.31l3.46,14.12,1.81,17.66c-4.13-6.05-7.09-12.66-12.26-17.9,1.16-2.31.32-4.12-.72-5.97-3.46-5.78-6.2-11.62-8.06-18.11l-5-15.39c8.07,5.53,14.38,11.89,20.18,19.28ZM89.89,285.89l8.38,23.77,7.17,16.01c-6.01-4.77-9.8-11.31-14.4-17.52-5.41-6.78-9.3-14.27-11.1-22.8l-2.28-10.76c3.87,4.35,7.55,8.03,12.23,11.3ZM70.9,265.72c3.23,5.55,5.19,11.32,6.24,17.67,1.59,9.6,5.44,18,11.36,25.59,2.39,3.06,4.69,5.62,6.51,9.39l-13.16-8.63c-3.63-2.38-6.83-8.06-8.09-12.45-2.95-10.28-3.12-20.76-2.86-31.57ZM75.01,304.91c2.49,2.41,3.62,5.68,6.62,7.47,7.99,4.78,15.58,9.73,22.74,15.71,4.9,6.02,9.43,11.85,12.66,19.74-4.18-3.42-7.96-6.73-13.3-8.57-6.35-2.18-12.1-5.31-17.56-9.24-5.15-7.74-8.86-15.9-11.16-25.11ZM90.26,335.25l15.19,7.08c12.26,5.72,17.82,15.96,21.01,29.82-9.01-15.18-24.6-22.08-36.2-36.9ZM127.66,368.47l-4.63-13.87-2.38-17.39-4.4-23.98c7.79,14.9,10.77,31.41,11.51,48.17.09,2.24,1.03,4.04-.1,7.07ZM98.31,433.58c16.4-6.51,37.02-.67,53.95,5.67l-16.65.13c-7.89,1.47-14.84,3.62-21.48,7.36-1.37-1.44-2.9-1.82-4.52-2.01l-30.36-3.59,19.06-7.56ZM74.03,442.2c1.8-.63,3.24.71,4.93.85,10.74.89,21.02,1.36,31.85,3.9l-14.54,5.45c-7.09,1.1-13.82.14-20.9-.6-10.12-1.06-19.64-.86-29.83.35l28.49-9.95ZM46.1,454.87c11.8-2.18,23.05-1.26,34.55.08l11.74.52c-6.49,8.41-18.93,11.63-28.82,7.21l-17.47-7.81ZM100.9,468.29c-9.72.65-18.62,1.53-27.82-1.48,5.61-1.06,11.63-1.13,16.03-5.11l7.42-6.72c5.13-.29,9.53-2.13,14.18-4.08l17.73-7.43-9.31,10.83-7.74,9.35c-2.74,3.31-6.01,4.35-10.49,4.64ZM145.39,451.33l-15.37,10.57c-5.73,3.94-12.79,4.79-19.15,5.1l12.41-13.98c9.74-10.97,11.48-13.09,30.13-10.68l8.2,1.06c-5.93,1.4-10.83,4.23-16.22,7.93ZM189.36,473.87l18.74-2.41c-5.2,1.05-8.88,4.36-12.76,8.03l-5.57,5.26c-3.71,3.51-7.29,6.82-12.61,7.9-3.91.79-6.74,2.45-9.85,4.42,4.18-9.67,12.25-21.93,22.05-23.2ZM153.53,515.49c10.9-7.7,8.83-17.16,24.16-20.88l10.29-4.66c-4.43,9.38-10.6,17.2-19.43,22.24l-24.84,14.16c2.13-5.06,6.26-7.58,9.82-10.86ZM145.36,528.13l8.1-4.69,20.41-12.5c-3.37,7.65-9.5,13.48-16.89,16.21l-11.62.98ZM189.08,510.76c-4.88,8.26-13.67,13.99-24.23,15.13,4.32-4.29,8.7-8.2,10.87-14.09,1.87-4.02,5.16-6.86,7.57-10.51l11.54-17.52c2.87-4.35,6.32-8.09,11.57-9.55-12.1,10.67-8.69,24.62-17.32,36.54ZM214.88,483.46l-18.81,19.33,3.56-13.98c1.51-5.95,4.89-11.33,10.33-15.09,4.68-3.24,11.29.37,14.8,4.2-4.13,1.49-7.25,2.84-9.88,5.54ZM210.76,335.43c6.5,12.75.1,25.73,8.75,39.97,1.11,1.83,1.49,4.14.86,6.3-2.6,8.9-2.19,17.18-1.7,27.88-2.43-4.7-4.39-10.11-5.93-15.8-1.8-6.68-.43-13.21.06-19.93l-2.06-15.87.34-15.43-.32-7.12ZM206.32,329.06c.84,3.59,2.59,7.86,1.99,11.84-1.45,9.54-.49,18.19,1.38,28l-.36,17.99c-4.83-7.93-8.92-15.46-10.01-24.37l7-33.46ZM198.1,366.27c1.06,6.09,3.63,11.1,6.24,16.43l4.84,9.88c.74,6.15,3.58,11.23,6.33,16.59l8.12,15.82-14.14-5.7c-7.31-2.95-15.71-13.28-15.92-20.48-.33-11.26,1.33-22.1,4.53-32.54ZM227.1,455.71c-2.99-5.89-7.57-10.32-12.29-14.92-8.42-8.2-15.07-17.68-18.14-29.54,4.47,4.44,7.56,8.85,13.35,10.68,5.53,1.75,11.38,3.84,15.22,8.38,8.89,10.5,10.31,29.15,10.63,42.73l-8.77-17.33ZM235.85,451.16l-1.45-6.68c-.26-1.23.51-2.87-.37-4.62l-6.09-12.11c-2.31-4.6-6.39-8.83-7.27-14l.37-8.65c-1.47-7.84-.07-15.2,1.6-23.65l8.82,17.4c4.95,17.05,5.98,34.52,4.39,52.31Z"/>
  <path class="st1" d="M251.31,2.9c-10.33,3.56-18.13,10.32-26.78,16.64l-16.56,12.09-14.91,8.82c-9.71,5.74-21.1,6.45-32.16,7.24l-16.5,1.18c-9.21,1.34-17.86,4.56-26.04,8.71-8.79,4.46-15.54,10.82-21.23,18.69-12.64,17.5-21.26,23.58-39.58,33.41-1.15.62-1.65,1.77-1.46,2.74.71,3.46,13.07,1.46,20.5.87,14.46-1.15,27.98-4.92,40.68-11.93l12.6-5.87,16.49-5.32c16.64-4.48,31.25-13.01,42.43-26.15l28.57-33.61c-6.34,9.45-10.77,17.77-12.65,28.68-1.1,6.35-2.88,13.35-6.53,18.58-4.64,6.66-8.56,12.88-9.6,21.16-.82,6.54-2.05,13.35-1.34,20.06.71,6.71,3.55,12.82,5.55,19.08.41,1.3,1.88,2.02,2.78,1.67.58-.23,1.49-1.14,1.69-2.03,2.18-9.5,6.72-17.13,12.46-24.79,20.96-27.99,6.05-59.11,9.01-71.51l2.7-11.28,1.33-4.49c7.58-9.9,18.21-16.24,29.73-20.95,2.35-.96,4.78-1.58,7.2-2.2V0c-2.84.9-5.6,1.94-8.38,2.9ZM144.63,51.92l21.63-1.53c10.71-.75,20.67-3.21,30.18-8.28-6.36,7.19-13.65,13.07-22.28,17.44l-7.95.25c-7.27.23-14.07.55-21.18-.48-8.31-1.33-16.21-.88-24.59.7,7.59-3.74,15.52-6.79,24.19-8.1ZM113.9,64.38l13.38-3.21c6.56-.59,12.71-.02,19.13.56,7.23,1.52,13.95.54,22.19.59-10.93,5.59-22.93,10.37-35.61,11.67l-8.5-.8c-8.29.82-15.98,1.76-23.89,3.82,3.88-5.24,7.87-9.93,13.3-12.63ZM98.31,79.92c9.51-3.02,19.07-4.42,29.98-4.29l-11.72,4.87-20.66,10.75-13.17,6.13,15.57-17.46ZM59.76,111.61l15.64-7.34,23.73-11.6,14.34-7.44-9.31,8.39c-15.67,14.11-19.99,18.06-44.4,17.99ZM117.58,98.09c-9.41,5.41-19.35,9.16-30.29,10.83,7.85-3.73,13.98-9.2,20.19-15.35,5.17-5.11,11.3-8.89,17.27-12.96,9.45-5.44,21.38-5.1,32.43-10.36l-5.76,6.27c-4.37,4.77-8.73,10.75-14.89,13.41l-18.95,8.16ZM185.3,63.75c-11.05,13.07-26.06,20.41-42.46,24.61l10.73-10.78c5.89-5.91,11.82-11.02,19.29-14.75,9.47-4.72,17-11.22,24.59-18.8,4.25-4.23,7.98-8.32,13.39-10.52l-25.54,30.24ZM197.01,83.03c3.94-5.15,6.51-10.49,8.1-16.82l4.3-17.15.49,18.09c.09,3.29-.44,6.83-1.22,10.02-1.29,5.25-13.46,12.73-17.87,22.09.63-5.93,2.64-11.55,6.2-16.23ZM204.62,114.25c-3.41,7.3-8.23,13.65-9.75,22.39l-2.48-6.79,1.07-2.46c.16-5.88.92-11.37,3.35-16.68l7.65-16.68c.43,6.98,2.99,14.15.16,20.22ZM194.65,110.96c-2.36,5.26-3,10.74-2.81,16.75-1.25-3.23-2.65-6.57-2.59-10.4.17-10.22-.51-12.68,6.08-21.77,3.08-4.25,7.02-7.48,11.02-10.63l-11.7,26.05ZM207.67,110.94l.11-6.2-.72-13.19,4.82-16.52c1.04-9.1.28-17.65.16-26.68-.06-4.85,2.94-9.39,5.39-13.29-.6,3.39-2.48,5.94-2.14,9.31l2.21,22.24c1.58,15.76-.91,31.55-9.83,44.33Z"/>
  <g>
    <path class="st1" d="M179.81,960.69c-1.44.48-2.8,1.07-4.12,1.72l4.12-1.72Z"/>
    <path class="st1" d="M255.16,668.12c1.52-.28,3.03-.45,4.53-.53v-2.34c-15.35.93-29.75,11.64-39.71,23.39l-6.02,5.81c-7.51,7.24-15.58,12.96-25.18,16.82-6.37,2.57-10.95,7.15-16.05,11.21l6.9-7.4,20.32-22.53c7.67-10.21,14.11-21.47,15.87-34.19.77-5.55,1.08-11.24.24-16.7l-3.94-25.35c-1.37-8.85,1.45-12.99,1.3-13.55-.18-.63-.72-.75-1.13-.73-.35.02-1.01.69-1.28,1.02-7.5,9.38-12.62,19.51-14.46,31.23-1.54,9.84-15.09,18.96-17.74,44l-1.67,15.79c-1.02,9.69-2.2,19.54-6.9,28.2l-3.48,6.42-6.87,11.17c-4.3,7-9.03,13.53-11.72,21.29-3.22,9.3-4.54,18.39-4.96,28.48l-4.66-16.62c-1.31-4.65-4.49-9.68-4.12-14.58.54-7.45,2.09-14.73,4.63-21.66l9.75-26.61c3.99-10.91,9.06-21.18,10.4-32.77l2.52-21.89,1.36-26.9,2.38-27.84c.14-1.62-.97-3.65-2.01-4.01-1.36-.47-3.25.31-4.03,1.96-4.38,9.33-8.86,18.8-16.24,26.4-10.9,11.23-17.6,24.99-20.38,40.38-1.58,8.75-2.85,17.51-.91,26.27l3.75,16.84c1.7,7.67,4.57,14.88,4.83,22.8l.54,16.09c.31,9.45,2.42,18.04,5.98,26.76l4.96,18.7,2.58,8.89,7.37,18.04,4.16,11.79c6.09,17.23.05,43.75-4.48,62.56l-5.74-19.88-6.39-24.15c-2.8-7.99-4.81-15.76-5.52-24.2-2.15-25.63-21.52-55.02-41.28-71.74-6.33-5.35-8.49-15.55-15.65-22.04-.84-.77-2.23-.71-2.76-.17-.61.61-.89,1.34-.83,2.33l.47,6.97c-.58,6.6,1.45,12.21,2.9,18.51,2.64,11.54,4.66,22.84,8.98,33.96l8.57,17.98c7.61,15.92,25.19,21.83,39.24,50.55l11.29,17.22c3.34,6.85,4.07,14.32,5.88,21.62,2.2,8.92,3.04,17.37,2.94,26.53-.07,6.23.1,12.25-2.12,18.37-4.34-19.29-11.31-27.06-24.6-40.16l-7.8-5.62-6.13-9.96c-6.54-10.61-2.06-32.34-11.83-46.84l-11.6-17.23c-3.58-6.72-7.75-12.62-12.54-18.6l-10.95-13.66c-5.09-6.34-4.98-12.27-6.73-12.34-2.84-.1-2.73,11.79-.87,19.09,1.43,5.62,2.3,11.13,2.21,16.96l-.35,22.25c.95,13.48,7.88,25.33,18.19,33.9l19.16,15.94,23.34,16.73c-4.62-.47-8.76-2.74-12.61-5.39-10.43-7.18-21.51-11.16-33.92-12.39-22.89-2.28-28.71,11.57-48.75,14.23-9.59,1.27-17.66,5.83-24.69,12.49-.83.79-1.4,1.56-.93,2.67.24.56,1.45.62,2.23.46,14.46-2.86,22.46,2.41,31.02,2.49,7.67.07,15.02-1.69,22.33-3.74,6.63-1.86,12.88-1.95,19.62-1.51,15.53,1.04,26-5.81,39.38-5.26,3.44.15,6.7-.47,10.03-1.85,6.16,4.71,11.92,9.89,16.02,16.62,5.4,8.85,10.76,24.41,8.6,33.46l-7.64,31.97-3.54,14.9-13.47,30.01-6.66,22.55c2.15-.95,3.09-2.97,3.82-5.16l5.88-17.66,12.85-28.87c2.95-6.63,5.07-13.38,9.32-19.38,2.4-3.39,4.75-7.12,7.97-10,6.94-6.24,14.99-11.84,23.94-14.47,2.62-.77,5.24-1.54,7.86-2.3,2.15-.64,4.3-1.27,6.45-1.9.99-.29,1.97-.61,2.97-.87,1.08-.29,2.12-.88,3.2-1.08.58-.1,1.15-.22,1.72-.35.89-.21,1.79-.35,2.64-.67,4.53-1.69,9.1-3.78,12.88-6.85,1.22-1,2.41-2.07,3.59-3.11,1.02-.88,2.05-1.65,2.92-2.7.75-.91,1.5-1.84,2.13-2.84.05-.08.11-.16.17-.25.28-.19.56-.4.85-.57,2-1.21,3.77-2.85,5.45-4.48.72-.7,1.19-1.55,1.85-2.3.86-.98,1.91-1.81,2.85-2.71,2.06-1.99,3.87-3.99,5.44-6.37.89-1.33,2.96-3.8,1.65-5.49-1.1-1.44-3.37-.75-4.87-.89-1.76-.16-3.62-.59-5.41-.49-4.61-.59-8.62.36-12.85,1.04-12.29,1.97-22.63,7.71-32.06,15.69-5.73,4.84-11.07,9.31-15.96,15.09l-11.93,14.1-9.37,13.53-10.08,15.71,5.9-23.76c2.1-8.44,4.12-16.57,9.73-23.53l9.22-11.43c3.1-3.85,5.73-8.29,9.55-11.55,8.11-6.9,12.58-16.77,10.84-27.38l-10.92,10.36c-3.69,3.49-7.47,6.67-9.3,11.41l-8.05,20.88c-1.14,2.96-2.54,5.31-5.26,6.29-.51-3.1-.1-5.57-.06-8.37l.22-18.67c.76-5.36,3.87-11.53,7.73-15.38,7.17-7.14,12.08-14.59,17.52-22.92,3.25-4.96,20.87-11.01,29.82-10.35l23.36,1.72c6.29.46,12.35-.1,18.56-1.24l6.87-1.26v-2.63l-12.05,2.48-2.1.07c-.38.01-.45-.66-.56-1.35-12.15-.44-21.21-7.06-33.07-7.55,4.09-2.53,7.73-5.36,12.3-6.5,5.72-1.43,12.51-1.16,18.05.93l17.43,9.41v-2.5l-11.15-6.36c-4.97-2.84-9.78-4.05-15.8-4.34,7.23-3.36,17.66-3.39,26.95-1.32v-2.21c-3.4-.74-6.81-1.28-10.25-1.58l8.07-2.44c.73-.22,1.46-.39,2.18-.5v-2.01l-23.53,6.22c-8.77,2.31-16.95,5.25-24.14,10.47,2.11-3.85,5.14-6.1,8.1-9.14,4.16-4.27,9.24-8.68,15.32-8.93l5.51-1.28c6.2-1.44,12.53-.22,18.74,1.3v-2.19c-6.98-1.38-14.42-2.34-23.4-.93-8.24,1.29-16.31,3.12-22.54,8.6l-19.28,16.98c-5.87,5.18-11.74,9.79-15.52,17.01-4.71,8.99-10.73,16.59-17.99,23.82-1.99,1.97-2.64,5.22-5.25,6.87-.32,1.34-1.67.79-1.15-.3-.08-5.29-1.18-10.21.01-15.34,3.35-14.42,6.18-28.62,7.17-43.4l6.78-4.02c7.7-4.56,10.27-16.59,23.07-24.63,10.8-6.78,7.6-20.29,12.66-27.99,2.87-4.36,7.5-6.91,11.74-10.93-3.56-2.79-8.05-.89-11.62,1.2-5.87,5.03-12.46,8.21-19.16,11.42-9.82,9.11-15.55,20.69-18.05,33.77-1.16,6.09-2.24,11.69-5.91,16.97l-1.83-10.84-11.8-30.67c-1.97-12.03-1.38-23.67,1.8-35.6,1.12-4.19,5.59-8.58,10.01-9.5,14.12-2.95,22.73,10.46,44.07,7.02,8.18-1.31,16.22-3.14,23.53-7.37l7.58-6.41c4.14-3.52,9.31-3.08,9.48-5.34.18-2.48-8.13-4.42-14.44-4.55-5.94-.12-11.5-.96-16.95-3.39-3.43-1.54-7.05-1.98-10.75-1.7l-15.54,1.19c-13.12,2.51-24.19,9.5-33.52,18.63l13.7-21.83c2.49-3.96,5.17-8.14,9.6-10.05,9.05-3.89,18.63-4.69,28.34-4.63,6.21.04,11.91-1.69,17.92-2.94,13.81-2.85,25.57-10.15,33.56-21.89l3.68-5.42v-4.89l-6.59,1.52-15.06,5.91,4.65-4.52c4.66-4.52,10.23-7.23,16.31-8.89l.69-.28v-2.3l-.41.17c-5.63,2.29-11.24,3.43-15.81,7.46l5.4-7.99c1.32-1.96,3.62-5.93,6.29-6.41ZM198.93,689.5l-14.57,17.53c-1.38,1.66-2.75,3.02-4.69,3.63l4.61-6.54c5.13-7.27,9.79-14.5,12.73-22.93l15.8-21.15c-2.52,10.73-6.78,20.91-13.88,29.46ZM212.88,654.01c-1.94,6.09-6.16,11.42-9.97,16.54l-3.81,5.13,4.63-21.31,3.37-5.19,6.14-8.3c-.13,4.32.97,8.94-.36,13.13ZM212.41,637.42c.35,2.41-2.93,5.01-4.36,7.09l-3.44,5.03c.1-6.29,1.92-12.43,4.08-18.8l1.93-5.7,1.79,12.38ZM209.25,610.03c.61,6.99.15,13.76-2.5,20.32l-2.38,5.9c-1.44-11.29-3.43-16.26,4.88-26.22ZM199.42,632.51c.28-2.06.61-4.18,1.84-6.21.83,6.01,2.44,11.99,1.6,17.94-1.2,8.48-1.69,16.45-4.23,24.74-.47-5.05-1.42-9.2-3.01-14-3.17-9.6,2.71-14.67,3.8-22.47ZM193.4,646.73c-.62,4.63.41,8.55,1.8,12.97,2.8,8.86,2.03,18.8-2.63,27.08l-4.33,7.68c1.52-10.34-.12-20.76-3.57-31.05,1.95-5.94,4.99-11.19,8.73-16.68ZM180.07,688.71c.66-7.56.75-14.85,4.02-22.43,3.11,10.73,4.43,22.22,1.41,32.57l-8.1,13.11c-1.1,1.79-.71,4.41-3.13,5.32,3.63-9.12,4.75-18.63,5.8-28.57ZM147.67,706.67l-6.1,18.2-7,19.33,2.43-18.71c.51-1.2,2.11-2.39,1.66-4.45-.68-3.16.42-6.53.69-9.55.23-2.56,1.5-3.36,2.4-5.31,2.94-6.41,5.47-12.59,10.1-18.06l4.61-8.38-8.79,26.93ZM159.71,637.43c-1.34,5.59-4.47,10.79-7.35,15.71l-8.82,15.08,1.91-10.76c1.44-8.06,5.33-15.4,8.65-22.91l7-15.88c-.13,6.43.09,12.57-1.39,18.76ZM144.53,628.32c7.29-8.94,12.98-18.41,17.27-29.36.64,3.43-1.02,6.23-2.32,9.3.42,6.34-1.58,12.13-4.11,18.01l-10.23,23.81-1.54-13.78c.15-2.16-.69-5.99.93-7.98ZM143.48,672.69l6.76-13.05,9.11-14.67c.8,8.49.1,16.23-1.11,24.5-2.53,7.38-5.41,14.64-10.16,20.97-2.9,3.85-4.6,7.8-6.6,12.35l-1.32-19.42.88-9.89,2.44-.79ZM129.43,652.82c1.91-8.42,7.08-15.52,12.54-22.4l.14,11.67.92,14.01-3.17,12.65c-1.74,6.95-2.09,13.28-1.58,19.99-4.14-5.6-4.46-11.59-6.22-17.57-1.57-5.92-4.05-12.1-2.63-18.35ZM127.11,658.9l3,11.99,4.19,14.74c1.1,3.9,3.73,7.13,4.58,11.5-.03,4.95-.09,9.49-1.44,14.19-3.26-7.93-7.02-14.86-13.16-21-1.39-10.1-.05-20.78,2.83-31.42ZM127.89,707.93l-2.85-14.41c5.79,6.74,9.6,14.2,11.5,22.78l-3.57,20.99c-.27-10.21-2.09-19.71-5.08-29.36ZM131.7,826.19c.62,6.88,1.81,13.2,3.77,19.87-3.41-5.99-5.85-11.67-10.61-16.72l-3.41-13.88c-.73-9.01-1.08-17.63-3.31-26.43,7.24,10.49,12.12,24.5,13.56,37.16ZM94.74,759.54c3.92,4.29,5.54,10.19,6.74,15.99l2.82,13.71-12.86-20.14c-3.87-6.06-4.76-13.16-6.46-20.22l9.76,10.66ZM79.09,760.14l-2.85-12.9-.77-13.48c9.15,8,6.99,21.27,13.65,35.05l12.31,19.49c-7.82-4.08-14.96-8.97-19.37-16.39-2.09-3.5-1.71-8-2.97-11.77ZM82.58,776.06c4.92,5.39,10.71,9.52,16.97,13.62l7.28,7.51c1.15,1.18.36,4.36,3.52,4.46-1.96-3.47-2.54-6.75-3.45-10.13-1.25-4.68-2.82-9.01-3.24-13.87l-2.7-12.25,9.33,11.25c7.96,13.92,8.32,22.02,9.28,37.42l1.8,9.11c-5-5.1-6.68-11.25-9.67-17.77-1.43,2.86.68,5.14,1.35,7.71-5.37-5.07-12.39-5.47-16.87-9.48-3.32-2.97-6.91-6.18-8.11-10.04l-5.49-17.54ZM99.21,815.37c-2.86-4.27-5.33-8.32-7.22-13.05,4.1,3.73,8.18,5.91,13.02,7.77,4.7,1.8,7.95,5.87,10.85,9.88l11.9,16.5-17.97-11.88c-4.03-2.67-7.85-5.22-10.58-9.22ZM142.61,871.65l-6.83-10.06c-5.7-11.41-12.66-21.72-22.34-30.28-1.97-1.75-3.85-3.27-4.8-5.5l5.54,3.58c8.33,4.54,14.99,10.81,20.05,18.74l6.51,13.53c.68,3.3,2.08,6.07,1.87,9.99ZM105.57,864.29l1.15,9.97,1.37,10.91-8.51-9.29c-1.62-1.76-2.63-3.4-2.75-5.83-1.23-4.25-3.68-8.72-2.93-13.32,1.09-6.69,1.69-13.08-.3-19.62,7.1,7.74,10.79,16.99,11.97,27.18ZM82.73,819.38l7.69,13c4.36,7.37,2.88,16.32,1.63,24.49-.77,5,2.23,9.16,3.14,14-6.77-7.39-12.08-15.64-14.96-25.09-.91-2.99.23-6.76,1.13-9.61,1.84-5.78,1.78-10.96,1.37-16.79ZM79.32,813.99c3.08,8.48,2.25,16.89-.72,25.25l-3.03-14.23c-2.04-9.53-10.86-20.36-12.94-31.8l16.69,20.78ZM59.94,790.86c2.28,8.02,5.09,14.99,8.87,22.12,3.27,6.16,5.84,12.12,6.11,19.19.06,1.4,1.37,2.83.51,4.49-1.45-1.72-2.11-3.76-2.8-5.84-2.39-7.2-9.66-7.68-9.54-9.74.3-5.38-.03-10.31-1.05-15.6-.94-4.89-2.87-9.46-2.1-14.62ZM62.85,824.2c2.24,1.14,5.49,2.37,6.69,4.87l7.96,16.5c3.04,6.32,5.11,12.57,9.4,18.51-3.59-1.62-5.49-4.29-8.49-6.44-6.43-2.8-11.76-7.24-15.09-13.3-.94-6.87-.82-13.28-.47-20.14ZM79,871.19c-6.49-5.82-11.5-12.74-14.18-21.07,3.03,2.71,4.85,5.51,8.39,6.96,4.5,1.85,7.95,5.18,11.89,7.84,2.64,1.79,4.77,3.17,6.97,5.57l8.98,9.83c5.1,5.57,9.81,10.97,13.56,17.78-13.36-7.66-24.43-16.88-35.61-26.91ZM103.45,901.01c-8.68-.56-16.82-2.43-22.51-9.03,7.91,1.59,15.44,4.05,22.51,9.03ZM77.17,892.19l7.6,5.32-11.45-.19-16.82-4.08c6.7-2.49,14.16-3.51,20.67-1.05ZM6.47,914.45c11.25-11.21,25.92-7.41,38.63-15.83,2.64-.86,5.47-4.09,8.19-3.53l16.11,3.28-14.38,4.5-10.31,2.9-14.01,1.29c-5.3.49-10.11,1.04-15.13,3.84-2.99,1.66-5.91,2.97-9.1,3.55ZM10.24,915.47c4.1-1.94,7.76-4.5,12.21-5.06l21.89-2.75,18.8-5.51-14.66,7.73c-7.75,4.09-16.65,7.28-25.42,7.09l-12.82-1.5ZM106.49,908.4l-13.84,3.28c-7.5,1.78-14.9,2.54-22.76,1.12l9.35-4.4c.45-.22,1.12-.11,1.19-.37.16-.57-.23-.88-.48-.97-.26-.09-1.03-.28-1.38-.08-4.97,2.81-10.19,4.03-15.57,5.72l-7.17,2.25c-8.13,2.56-16.24,4.75-25.26,3.61l17.7-6.25c8.55-4.96,16.8-9.3,26.33-12.38,5.81-1.89,12.27-.67,18.4,1.21-2.78,1.97-6.27.98-8,4.52,5.23-2.11,9.97-3.07,15.51-2.51,2.34.24,5.26-.59,7.46.43l9.04,4.2-10.52.62ZM222.81,942.88c-1.73,1.48-3.47,2.95-5.31,4.3-2.09,1.53-4.57,2.36-6.73,3.76-1.88,1.21-3.61,2.19-5.75,2.74-.71.18-1.39.4-2.1.62-3.19.95-6.37,2.1-9.62,2.99-3.53.96-7.09,1.81-10.65,2.69-4.36,1.07-7.77,3.28-11.71,5.21,6.92-8.75,18.83-21.33,28.46-20.41l10.78,1.04c.39.04.78.07,1.17.08l-.11.15c.4.13.71.23,1.29.14,1.06-.16,2.07-.53,3.15-.7.36-.06.72-.14,1.08-.22l6.34-2.65c-.1.09-.19.18-.29.26ZM242.59,921.36c-.14.69-1.16,1.44-1.59,1.99-.86,1.09-1.8,2.2-2.53,3.39-1.04,1.66-2.16,3.07-3.44,4.58-1.52,1.79-3.47,3.46-5.28,4.97-1.96,1.62-4.17,2.7-6.32,4-1.89,1.16-4.2,1.89-6.33,2.46-.81.22-1.63.47-2.46.64-.57.12-1.15.21-1.71.25l-.09.12c-2.95.07-5.9-.63-8.96-.63h-8.14l15.18-5.77c3.63-1.38,6.81-3.71,10.62-4.57l-.34.38c2.43-.67,4.87-1.32,5.88-1.68,1.22-.44,2.34-1.02,3.43-1.68,1.19-.72,8.95-4.89,10.96-7.02.42-.45.77-.94,1.12-1.43ZM233.39,919l-.17.23c1.27.46,2.89.52,4.19.74.91.16,2.31-.02,3.48.13-1.66,1-8.19,5.78-9.3,6.55-1.84,1.3-3.8,2.2-5.91,2.96-.23.09-.87.25-1.65.46h-.02c-6.92,1.22-11.42,4.66-17.18,6.73,7.04-8.3,16.58-18.56,26.56-17.8ZM183.82,943.33l15.96-13.07c6.19-5.07,13.75-7.44,21.32-9.57l-10.29,9.12c-3.43,3.04-6.49,7.17-10.86,8.89-7.21,2.84-13.34,6.62-18.69,12.35l-9.9,10.6c-4.08,4.37-7.49,8.69-12.62,11.83,7.4-10.74,15.49-20.72,25.08-30.15ZM167.78,923.94c2.72-7.28,7.13-13.14,12.68-18.75l7.58-7.66c-.05,6.52-1.47,13.34-6.31,18.07l-9.2,8.99-10.08,13.67,5.33-14.32ZM223.98,861.81l16.56,4.92-29.32-1.9c-5.38-.35-9.81,1.01-15.44,2.09,12.44-7.66,14.18-9.28,28.2-5.11ZM196.72,860.3l17.79-15.64c2.84-2.5,6.05-4.51,9.95-5.56-4.95,4.91-11.04,9.25-13.96,16.02-6.85,5.16-14.85,9.49-23.02,13.33l9.24-8.15ZM190.88,817.04l-9.96,7.78-5.68,2.87,4.06-9.2c2.91-6.61,12.86-5.99,18.1-10.5-1.18,4.01-3.44,6.63-6.52,9.05ZM197.76,804.94c-.78,3.05-6.73,3.92-9.55,5.21l-7.31,3.33c4.74-8.63,13.05-12.48,19.49-18.88l-2.63,10.34ZM184.96,796.37c1.45-2.42,5.36-3.55,7.7-4.99l10.14-6.22c3.09-1.91,5.88-4.29,9.71-4.43-5.71,4.68-10.7,9.35-15.38,15-6.5,3.57-11.63,8.27-16.69,14.08,1-4.6,1.98-9.21,4.52-13.44ZM181.59,800.19c-3.78,7.99-3.51,19.48-6.71,23.85l-7.35,10.06c2.09-11.73,5.34-25.02,14.06-33.91ZM170.8,833.07c1.86-2.78,5.47-3.87,8.33-5.22l-6.21,8.78c-2.4,3.39-4.92,6.4-9.25,7.07l7.13-10.63ZM166.91,754.42c4.39-4.2,12.37-2.47,17.98.8l11.67,6.82c-10.88.73-18.75-5.59-29.65-7.62ZM200.64,761.5c-8.73-2.99-14.35-9.62-24.06-11.46,6.89-2.97,14.28-3.77,20.9-1.27,3.17,1.2,6.62,1.43,9.38,3.41,3.46,2.49,6.58,4.56,10.74,5.92-5.68,1.73-11.03,3.43-16.96,3.4ZM222.87,756c-1.74.43-4.95.31-6.67-.7l-9.35-5.51c8.41,1.15,16.18,2.38,24.7.1-2.13,2.43-4.93,5.19-8.68,6.11ZM218.17,741.43c7.1,2.23,14.96.4,21.97,3.22-10.12,5.91-23.85,5.4-35.21,2.1l8.17-4.05c1.46-.72,3.83.36,5.07-1.27ZM216.05,741.2c-5.83-1.59-10.88,4.84-15.88,4.66-6.25-.24-11.69-1.33-17.37-.34l11.33-7.18c7.59-1.22,15.14-1.32,21.92,2.86ZM190.7,738.12c-4.41,4.43-10.47,5.44-15.69,8.79-6.15,3.95-11.57,7.59-19.21,8.37,9.34-8.9,21.27-15.54,34.9-17.16ZM190.5,716.58l-10.7,2.55c4.1-3.99,8.96-6.01,14.01-8.16,9.06-3.86,16.49-9.84,23.29-16.91l6.73-7-3.86,9.21c-2.41,5.72-11.73,10.34-11.08,14.58-5.9,2.59-11.86,4.18-18.39,5.73ZM202.84,716.04l12.64-6.02,13.11-5.4c6.2-2.55,12.33-4.23,18.58-4.96-10.38,12.01-28.75,15.66-44.33,16.38ZM248.29,688.52l10.23-2.74c-2.65,4.02-5.01,7.81-8.43,11.14l-12.4,2.38-15.68,6.03,13.33-11.41,12.95-5.4ZM236.37,687.61c-2.72,2.86-4.24,6.96-8.08,9-5.11,4.56-9.94,9.22-16.4,12.43l10.08-12.95c2.8-5.37,4.47-11.49,9.11-15.78,5.53-5.11,12.31-8.36,18.8-11.15-3.02,7.55-8.14,12.8-13.51,18.45Z"/>
  </g>
  <path class="st0" d="M259.82,524.64l-.13,3.6v-4.88c.1.42.15.85.13,1.28Z"/>
</svg>